<svg width="117" height="23" viewBox="0 0 117 23" fill="none" xmlns="http://www.w3.org/2000/svg">
<g clip-path="url(#clip0_1_223)">
<path fill-rule="evenodd" clip-rule="evenodd" d="M13.1583 10.7087C13.4527 10.6454 13.5621 10.6863 13.586 10.6978C13.5959 10.7183 13.6182 10.7857 13.6027 10.9445C13.5803 11.1752 13.4834 11.5015 13.2857 11.91C12.8933 12.721 12.1695 13.721 11.1953 14.6953C10.221 15.6695 9.22107 16.3933 8.41003 16.7857C8.00153 16.9834 7.67517 17.0802 7.44453 17.1027C7.2857 17.1182 7.21837 17.0958 7.1978 17.086C7.1863 17.0621 7.14543 16.9527 7.20873 16.6583C7.2854 16.3018 7.48963 15.8219 7.8346 15.2606C8.2525 14.5806 8.8499 13.8248 9.58737 13.0873C10.3248 12.3499 11.0806 11.7525 11.7606 11.3346C12.3219 10.9896 12.8018 10.7854 13.1583 10.7087ZM1.47063 13.2468L6.25323 18.0294C6.6271 18.4032 7.13423 18.4726 7.5739 18.4298C8.0195 18.3863 8.50493 18.221 8.99077 17.986C9.9684 17.5129 11.0873 16.6889 12.1381 15.6381C13.1889 14.5873 14.0129 13.4684 14.486 12.4908C14.721 12.0049 14.8863 11.5195 14.9298 11.0739C14.9726 10.6342 14.9032 10.1271 14.5294 9.75323L9.74677 4.97062C9.28423 4.50809 8.6255 4.50858 8.09537 4.62259C7.53603 4.74288 6.91113 5.02806 6.27987 5.416C5.49927 5.89572 4.6627 6.56118 3.86193 7.36193C3.06118 8.16267 2.39572 8.99927 1.91601 9.77987C1.52807 10.4111 1.24288 11.036 1.12259 11.5954C1.00858 12.1255 1.0081 12.7842 1.47063 13.2468Z" fill="#0F1A12"/>
</g>
<path d="M35.438 5.047L35.555 3.94H39.128C40.058 3.94 40.811 4.066 41.387 4.318C41.969 4.564 42.392 4.903 42.656 5.335C42.926 5.761 43.061 6.244 43.061 6.784C43.061 7.528 42.806 8.155 42.296 8.665C41.786 9.175 41.09 9.469 40.208 9.547L40.235 9.412C41.339 9.472 42.209 9.787 42.845 10.357C43.487 10.921 43.808 11.638 43.808 12.508C43.808 13.174 43.646 13.771 43.322 14.299C43.004 14.827 42.503 15.244 41.819 15.55C41.141 15.85 40.253 16 39.155 16H35.564L35.42 14.893H38.264C38.81 14.893 39.278 14.809 39.668 14.641C40.058 14.467 40.358 14.2 40.568 13.84C40.778 13.474 40.883 13.009 40.883 12.445C40.883 11.995 40.793 11.599 40.613 11.257C40.433 10.909 40.157 10.639 39.785 10.447C39.413 10.249 38.93 10.15 38.336 10.15H35.411L35.438 9.052H38.255C38.873 9.052 39.362 8.878 39.722 8.53C40.082 8.182 40.262 7.663 40.262 6.973C40.262 6.589 40.181 6.253 40.019 5.965C39.863 5.677 39.62 5.452 39.29 5.29C38.966 5.128 38.555 5.047 38.057 5.047H35.438ZM32.612 16V15.604L33.917 15.082V4.858L32.612 4.336V3.94H36.698V16H32.612ZM49.2072 15.334C49.5072 15.334 49.7712 15.244 49.9992 15.064C50.2332 14.878 50.4132 14.581 50.5392 14.173C50.6712 13.759 50.7372 13.204 50.7372 12.508C50.7372 11.716 50.6742 11.053 50.5482 10.519C50.4222 9.979 50.2362 9.574 49.9902 9.304C49.7442 9.028 49.4442 8.89 49.0902 8.89C48.7902 8.89 48.5232 8.98 48.2892 9.16C48.0612 9.34 47.8812 9.637 47.7492 10.051C47.6232 10.459 47.5602 11.011 47.5602 11.707C47.5602 12.499 47.6202 13.165 47.7402 13.705C47.8662 14.239 48.0522 14.644 48.2982 14.92C48.5442 15.196 48.8472 15.334 49.2072 15.334ZM49.0812 16.234C48.2232 16.234 47.4822 16.066 46.8582 15.73C46.2402 15.394 45.7632 14.926 45.4272 14.326C45.0972 13.72 44.9322 13.021 44.9322 12.229C44.9322 11.401 45.1122 10.669 45.4722 10.033C45.8382 9.391 46.3422 8.89 46.9842 8.53C47.6262 8.164 48.3702 7.981 49.2162 7.981C50.0742 7.981 50.8122 8.149 51.4302 8.485C52.0542 8.821 52.5312 9.289 52.8612 9.889C53.1972 10.489 53.3652 11.188 53.3652 11.986C53.3652 12.808 53.1822 13.54 52.8162 14.182C52.4502 14.824 51.9462 15.328 51.3042 15.694C50.6622 16.054 49.9212 16.234 49.0812 16.234ZM58.6818 15.334C58.9818 15.334 59.2458 15.244 59.4738 15.064C59.7078 14.878 59.8878 14.581 60.0138 14.173C60.1458 13.759 60.2118 13.204 60.2118 12.508C60.2118 11.716 60.1488 11.053 60.0228 10.519C59.8968 9.979 59.7108 9.574 59.4648 9.304C59.2188 9.028 58.9188 8.89 58.5648 8.89C58.2648 8.89 57.9978 8.98 57.7638 9.16C57.5358 9.34 57.3558 9.637 57.2238 10.051C57.0978 10.459 57.0348 11.011 57.0348 11.707C57.0348 12.499 57.0948 13.165 57.2148 13.705C57.3408 14.239 57.5268 14.644 57.7728 14.92C58.0188 15.196 58.3218 15.334 58.6818 15.334ZM58.5558 16.234C57.6978 16.234 56.9568 16.066 56.3328 15.73C55.7148 15.394 55.2378 14.926 54.9018 14.326C54.5718 13.72 54.4068 13.021 54.4068 12.229C54.4068 11.401 54.5868 10.669 54.9468 10.033C55.3128 9.391 55.8168 8.89 56.4588 8.53C57.1008 8.164 57.8448 7.981 58.6908 7.981C59.5488 7.981 60.2868 8.149 60.9048 8.485C61.5288 8.821 62.0058 9.289 62.3358 9.889C62.6718 10.489 62.8398 11.188 62.8398 11.986C62.8398 12.808 62.6568 13.54 62.2908 14.182C61.9248 14.824 61.4208 15.328 60.7788 15.694C60.1368 16.054 59.3958 16.234 58.5558 16.234ZM68.5074 11.833L69.5334 10.51L72.8274 15.172L73.7904 15.64V16H69.2274V15.64L69.9924 15.262L67.8054 12.139H66.3204V11.185H68.0844L70.5324 9.016L69.4524 8.629V8.215H73.1154V8.629L71.9004 9.034L68.5074 11.833ZM67.1844 15.19L68.1744 15.64V16H63.5934V15.64L64.6914 15.163V5.533C64.6014 5.413 64.4934 5.302 64.3674 5.2C64.2474 5.092 64.1034 4.99 63.9354 4.894C63.7674 4.792 63.5664 4.69 63.3324 4.588V4.192L67.0584 3.175H67.3464L67.1844 5.092V15.19ZM82.1304 4.417L80.6994 4.183L81.8424 3.301H82.1664L82.8684 7.522L82.3104 7.648L80.3754 4.768L80.9964 5.47C80.6844 5.242 80.3544 5.071 80.0064 4.957C79.6644 4.843 79.3134 4.786 78.9534 4.786C78.2094 4.786 77.6664 4.927 77.3244 5.209C76.9824 5.491 76.8114 5.872 76.8114 6.352C76.8114 6.682 76.8984 6.961 77.0724 7.189C77.2464 7.417 77.4804 7.612 77.7744 7.774C78.0744 7.93 78.4104 8.074 78.7824 8.206C79.1544 8.332 79.5414 8.464 79.9434 8.602C80.3454 8.746 80.7444 8.911 81.1404 9.097C81.5424 9.277 81.9084 9.505 82.2384 9.781C82.5684 10.057 82.8324 10.399 83.0304 10.807C83.2344 11.209 83.3364 11.704 83.3364 12.292C83.3364 13.156 83.1174 13.882 82.6794 14.47C82.2474 15.052 81.6624 15.493 80.9244 15.793C80.1864 16.087 79.3494 16.234 78.4134 16.234C77.7714 16.234 77.1924 16.195 76.6764 16.117C76.1664 16.039 75.6324 15.898 75.0744 15.694L74.2914 12.22H74.8584L77.5494 15.685L75.4884 14.398C75.9624 14.65 76.3884 14.83 76.7664 14.938C77.1444 15.04 77.5464 15.091 77.9724 15.091C78.6204 15.091 79.1514 15.019 79.5654 14.875C79.9854 14.731 80.2974 14.518 80.5014 14.236C80.7054 13.954 80.8074 13.609 80.8074 13.201C80.8074 12.805 80.7024 12.478 80.4924 12.22C80.2824 11.956 80.0064 11.74 79.6644 11.572C79.3284 11.398 78.9564 11.248 78.5484 11.122C78.1464 10.99 77.7534 10.852 77.3694 10.708C76.9854 10.57 76.6194 10.411 76.2714 10.231C75.9234 10.045 75.6144 9.823 75.3444 9.565C75.0744 9.301 74.8614 8.98 74.7054 8.602C74.5494 8.224 74.4714 7.771 74.4714 7.243C74.4714 6.523 74.6574 5.899 75.0294 5.371C75.4014 4.843 75.9264 4.435 76.6044 4.147C77.2884 3.853 78.0924 3.706 79.0164 3.706C79.5924 3.706 80.1264 3.76 80.6184 3.868C81.1104 3.976 81.6144 4.159 82.1304 4.417ZM95.6022 8.944L94.6302 8.629V8.215H97.5192V8.629L96.6372 8.962L94.4412 16.063H92.9202L90.4182 10.159L91.0212 9.853L88.5732 16.063H87.0522L84.7572 9.07L83.6862 8.611V8.215H88.3392V8.629L87.3312 8.971L88.9152 14.2H88.4292L90.7332 8.152H92.2632L94.6842 14.209H94.1802L95.6022 8.944ZM102.514 11.122L102.568 11.914C102.076 12.028 101.674 12.151 101.362 12.283C101.05 12.409 100.81 12.541 100.642 12.679C100.474 12.817 100.357 12.967 100.291 13.129C100.231 13.285 100.201 13.453 100.201 13.633C100.201 14.017 100.285 14.296 100.453 14.47C100.621 14.644 100.84 14.731 101.11 14.731C101.296 14.731 101.464 14.68 101.614 14.578C101.77 14.476 101.893 14.341 101.983 14.173C102.079 13.999 102.127 13.81 102.127 13.606V10.177C102.127 9.835 102.028 9.562 101.83 9.358C101.638 9.148 101.332 9.043 100.912 9.043C100.738 9.043 100.558 9.061 100.372 9.097C100.186 9.133 100.015 9.184 99.8587 9.25L100.165 8.638C100.123 8.98 100.078 9.262 100.03 9.484C99.9877 9.7 99.9427 9.871 99.8947 9.997C99.8467 10.123 99.7867 10.222 99.7147 10.294C99.6187 10.408 99.4837 10.501 99.3097 10.573C99.1417 10.639 98.9587 10.672 98.7607 10.672C98.5027 10.672 98.3017 10.624 98.1577 10.528C98.0137 10.426 97.9417 10.285 97.9417 10.105C97.9417 9.853 98.0557 9.604 98.2837 9.358C98.5117 9.106 98.8177 8.878 99.2017 8.674C99.5857 8.47 100.015 8.308 100.489 8.188C100.969 8.068 101.461 8.008 101.965 8.008C102.649 8.008 103.183 8.113 103.567 8.323C103.957 8.533 104.227 8.824 104.377 9.196C104.533 9.562 104.611 9.991 104.611 10.483V14.353C104.611 14.503 104.632 14.629 104.674 14.731C104.722 14.833 104.785 14.908 104.863 14.956C104.947 15.004 105.052 15.028 105.178 15.028C105.292 15.028 105.415 15.01 105.547 14.974C105.685 14.932 105.826 14.866 105.97 14.776V15.343C105.658 15.607 105.322 15.823 104.962 15.991C104.602 16.153 104.266 16.234 103.954 16.234C103.546 16.234 103.216 16.156 102.964 16C102.712 15.844 102.526 15.625 102.406 15.343C102.286 15.061 102.22 14.74 102.208 14.38L102.298 14.344C102.184 14.764 102.016 15.115 101.794 15.397C101.572 15.673 101.308 15.88 101.002 16.018C100.696 16.162 100.36 16.234 99.9937 16.234C99.3517 16.234 98.8267 16.066 98.4187 15.73C98.0167 15.388 97.8157 14.869 97.8157 14.173C97.8157 13.843 97.8817 13.543 98.0137 13.273C98.1517 13.003 98.3917 12.748 98.7337 12.508C99.0757 12.262 99.5527 12.028 100.165 11.806C100.777 11.578 101.56 11.35 102.514 11.122ZM112.955 12.238C112.955 11.296 112.781 10.591 112.433 10.123C112.091 9.649 111.629 9.412 111.047 9.412C110.843 9.412 110.636 9.433 110.426 9.475C110.216 9.511 110.012 9.568 109.814 9.646C109.622 9.718 109.439 9.817 109.265 9.943L109.031 9.232C109.337 9.046 109.631 8.878 109.913 8.728C110.201 8.578 110.477 8.446 110.741 8.332C111.005 8.218 111.26 8.131 111.506 8.071C111.758 8.011 112.001 7.981 112.235 7.981C112.955 7.981 113.561 8.143 114.053 8.467C114.545 8.785 114.92 9.223 115.178 9.781C115.436 10.333 115.565 10.957 115.565 11.653C115.565 12.613 115.361 13.438 114.953 14.128C114.545 14.812 114.002 15.334 113.324 15.694C112.652 16.054 111.914 16.234 111.11 16.234C110.798 16.234 110.498 16.21 110.21 16.162C109.928 16.114 109.634 16.042 109.328 15.946C109.022 15.844 108.686 15.709 108.32 15.541H109.733V19.654L111.029 20.167V20.536H106.142V20.167L107.24 19.699V10.114C107.156 10.006 107.054 9.904 106.934 9.808C106.82 9.712 106.691 9.622 106.547 9.538C106.403 9.454 106.241 9.373 106.061 9.295V8.962L109.148 7.918H109.445L109.733 9.106V13.651C109.733 13.975 109.79 14.263 109.904 14.515C110.024 14.767 110.192 14.965 110.408 15.109C110.624 15.253 110.888 15.325 111.2 15.325C111.566 15.325 111.878 15.22 112.136 15.01C112.4 14.794 112.601 14.458 112.739 14.002C112.883 13.546 112.955 12.958 112.955 12.238Z" fill="#0F1A12"/>
<defs>
<clipPath id="clip0_1_223">
<rect width="16" height="16" fill="white" transform="translate(0 3.5)"/>
</clipPath>
</defs>
</svg>
